<?xml version="1.0" encoding="UTF-8"?>
<svg version="1.1" xmlns="http://www.w3.org/2000/svg" width="500" height="500">
<path d="M0 0 C9.57887242 8.82531513 15.47462891 20.43129996 16.54296875 33.44921875 C17.07740165 47.87890715 11.80689948 60.25377899 2.28173828 70.90234375 C-0.80887052 74.03552292 -4.2425236 76.50933038 -7.85546875 79.00390625 C-8.63083984 79.55175781 -9.40621094 80.09960938 -10.20507812 80.6640625 C-12.68551681 82.412861 -15.17588555 84.14675162 -17.66796875 85.87890625 C-19.33114202 87.0423788 -20.9939026 88.20644151 -22.65625 89.37109375 C-25.16293794 91.12621525 -27.67020551 92.88046707 -30.1796875 94.6315918 C-38.12281395 100.17832525 -45.99944344 105.81151082 -53.81494141 111.53662109 C-55.40914849 112.69142354 -57.02673 113.81383371 -58.6484375 114.9296875 C-64.01090706 118.73502887 -67.1469102 122.37159617 -68.66796875 128.87890625 C-69.64018573 136.63617439 -68.77975531 142.27603732 -64.66796875 148.87890625 C-64.32765625 149.58917969 -63.98734375 150.29945313 -63.63671875 151.03125 C-62.33111581 153.52137173 -61.28299753 153.84665805 -58.66796875 154.87890625 C-57.79785156 155.26755859 -57.79785156 155.26755859 -56.91015625 155.6640625 C-49.50325904 158.78657799 -43.51417658 158.47955545 -36.05639648 155.90039062 C-31.99766477 154.16454952 -28.65841691 151.61020354 -25.16796875 148.94140625 C-23.58535411 147.76465781 -22.00200332 146.58889886 -20.41796875 145.4140625 C-19.62519531 144.82125488 -18.83242187 144.22844727 -18.015625 143.61767578 C-14.44500142 140.97312699 -10.80850459 138.42587605 -7.16796875 135.87890625 C-0.46891816 131.1703059 6.18013379 126.39571872 12.8125 121.59375 C17.86444559 117.93635189 22.93160047 114.3014289 28.01123047 110.68261719 C32.73814594 107.31146272 37.4417796 103.90865638 42.14453125 100.50390625 C51.51889546 93.72188027 60.9712483 87.05365621 70.43652344 80.39941406 C81.46389723 72.64395461 92.41594461 64.79013463 103.33203125 56.87890625 C113.47478515 49.52813622 123.63200082 42.20191713 133.88671875 35.0078125 C137.11419077 32.7430351 140.32353876 30.45437531 143.52734375 28.15625 C145.29550327 26.89703762 147.06373128 25.63792139 148.83203125 24.37890625 C149.64462402 23.79117432 150.4572168 23.20344238 151.29443359 22.59790039 C163.18497495 14.17065901 174.71161244 10.66820071 189.33203125 11.87890625 C198.72363737 13.55097258 206.06064045 16.72423865 213.33203125 22.87890625 C214.39357422 23.73935547 214.39357422 23.73935547 215.4765625 24.6171875 C225.74642993 33.78741329 229.57109508 46.4432978 230.64453125 59.75390625 C230.15114868 73.94591064 224.17157473 85.91575656 214.33203125 95.87890625 C211.65231847 98.13437526 208.83851246 100.14045653 205.95703125 102.12890625 C205.17392578 102.68191406 204.39082031 103.23492187 203.58398438 103.8046875 C201.17283504 105.50508037 198.75278496 107.19222599 196.33203125 108.87890625 C194.19076712 110.38624975 192.05211093 111.89723788 189.91357422 113.40844727 C188.5253167 114.38915041 187.13631792 115.36880507 185.74658203 116.34741211 C178.19339429 121.66797932 170.68921203 127.05424482 163.22900391 132.50439453 C161.62420386 133.66720332 160.00147077 134.80520133 158.375 135.9375 C153.10949254 139.71853604 149.30909387 143.57701916 147.33203125 149.87890625 C146.40252204 156.6427456 146.42806712 163.17939373 149.99609375 169.1640625 C154.51086564 174.95933987 159.47441078 177.98868614 166.58203125 179.62890625 C176.30794325 180.27730038 182.4833194 176.21915196 190.33203125 170.87890625 C203.43650673 162.21766699 216.26011188 158.61709431 231.85546875 161.5390625 C244.55926865 165.02430926 254.78037576 172.06583436 261.828125 183.25390625 C268.63256019 195.85321652 270.16584483 209.13227201 266.37890625 222.88671875 C262.84216188 232.99547317 257.066343 241.10418273 248.51953125 247.56640625 C247.95967529 247.99010498 247.39981934 248.41380371 246.82299805 248.8503418 C241.85849671 252.56878121 236.75484237 256.07774863 231.62548828 259.56347656 C226.48460528 263.06225157 221.42621628 266.66256711 216.39453125 270.31640625 C210.56923231 274.54612593 204.72176709 278.73934148 198.83203125 282.87890625 C192.9670604 287.002682 187.13769263 291.17205007 181.33203125 295.37890625 C174.83478083 300.08689665 168.30268946 304.74090815 161.73535156 309.35058594 C157.25484643 312.5016876 152.81735022 315.7061145 148.39624023 318.93994141 C118.98951612 340.40166916 118.98951612 340.40166916 99.33203125 338.87890625 C86.01881391 336.64832762 74.68419194 331.15177955 66.35546875 320.3046875 C57.53732486 307.15251969 55.00242688 293.85411974 58.02734375 278.3046875 C63.97044175 258.80233651 80.77708113 248.4558083 96.734375 237.546875 C103.16421731 233.07509167 108.78539197 228.5188241 111.33203125 220.87890625 C111.97210104 213.2085617 112.22846391 206.1640932 107.33203125 199.87890625 C101.83343549 194.0545643 96.39214699 191.4162473 88.33203125 190.87890625 C76.23873819 191.70344896 66.4940151 201.12715241 57.14453125 208.0625 C53.63096841 210.66661792 50.08413683 213.22026576 46.51953125 215.75390625 C42.70691873 218.46403742 38.9034417 221.18522005 35.12109375 223.9375 C27.30886971 229.61864783 19.45004752 235.20424997 11.45703125 240.62890625 C5.30871209 244.80214643 -0.69604731 249.08000365 -6.60546875 253.5859375 C-10.99359983 256.8714387 -15.48278583 260.00732059 -19.96923828 263.15649414 C-25.23307743 266.8553924 -30.45925275 270.60284077 -35.66796875 274.37890625 C-42.1684371 279.08947169 -48.70660985 283.74188395 -55.2734375 288.359375 C-60.43364545 291.99345861 -65.55679453 295.67624967 -70.66796875 299.37890625 C-72.913155 301.00194715 -75.15895453 302.62413256 -77.40527344 304.24560547 C-78.93251892 305.34803019 -80.45919857 306.45123916 -81.98535156 307.55517578 C-84.25021683 309.19006271 -86.52079301 310.81670006 -88.79296875 312.44140625 C-89.46714844 312.92996094 -90.14132813 313.41851562 -90.8359375 313.921875 C-104.30256286 323.50647118 -118.04751027 326.00021736 -134.33984375 323.26171875 C-147.64784573 319.66410099 -156.48485986 311.21046936 -163.94140625 299.95703125 C-170.20453086 288.93769923 -170.73585933 275.83231359 -167.9453125 263.75 C-161.83395252 243.03487071 -142.81954111 232.1760764 -125.96875 220.65625 C-112.7059139 212.03751152 -112.7059139 212.03751152 -104.66796875 198.87890625 C-103.93284783 192.20298259 -103.74790322 185.50059418 -107.26953125 179.59375 C-111.84723416 173.98030984 -117.73473012 170.50630419 -124.91015625 169.59375 C-132.95813637 169.10485401 -138.47140819 172.18015348 -145.09765625 176.44140625 C-155.98780032 183.39996476 -167.79038746 185.58695985 -180.58203125 183.375 C-194.15510938 180.029523 -204.34756661 173.19293137 -212.12890625 161.57421875 C-214.61322702 157.22350472 -216.24445903 152.66985831 -217.66796875 147.87890625 C-217.86003906 147.25628906 -218.05210937 146.63367188 -218.25 145.9921875 C-220.73368878 133.43447133 -217.95315838 121.03986733 -211.54296875 110.12890625 C-204.73414105 100.21605416 -194.96618568 93.78848153 -185.22265625 87.046875 C-180.69513911 83.91370894 -176.24236015 80.68410866 -171.79296875 77.44140625 C-165.61696723 72.95263521 -159.36438603 68.59762512 -153.04296875 64.31640625 C-146.41648816 59.82476624 -139.95752498 55.16953311 -133.58325195 50.32788086 C-126.77793333 45.17022821 -119.80036169 40.2692537 -112.8046875 35.37451172 C-109.27497081 32.90387135 -105.75184216 30.42391953 -102.23046875 27.94140625 C-101.53187744 27.44898438 -100.83328613 26.9565625 -100.11352539 26.44921875 C-94.93922171 22.79439583 -89.79903581 19.09410619 -84.66796875 15.37890625 C-82.41658391 13.75340688 -80.16485225 12.12838884 -77.91308594 10.50341797 C-76.41153686 9.41693389 -74.91219587 8.32739189 -73.41503906 7.23486328 C-50.28402158 -9.63675763 -25.35331099 -20.15643905 0 0 Z " fill="#5378D9" transform="translate(224.66796875,85.12109375)"/>
<path d="M0 0 C1.58802896 1.21740308 3.15181985 2.46719342 4.6875 3.75 C5.40808594 4.34683594 6.12867188 4.94367188 6.87109375 5.55859375 C14.40089908 12.40516533 19.89246727 22.60569241 20.890625 32.83081055 C20.99094364 35.07920217 21.01645163 37.31196435 21 39.5625 C20.99262817 40.7544397 20.99262817 40.7544397 20.98510742 41.97045898 C20.86546137 47.97423663 20.16502852 53.22320561 17.6875 58.75 C17.35878906 59.49121094 17.03007812 60.23242188 16.69140625 60.99609375 C9.95654936 74.44250353 -1.69287091 83.35311946 -15.75 88.25 C-28.35283016 91.64306966 -41.59494526 90.51929934 -53.1328125 84.20703125 C-55.66634173 82.51413787 -57.98746581 80.71796087 -60.3125 78.75 C-61.02019531 78.17636719 -61.72789062 77.60273438 -62.45703125 77.01171875 C-70.9050408 69.46827619 -76.27357131 57.98582137 -77.3125 46.75 C-77.38210937 46.0384375 -77.45171875 45.326875 -77.5234375 44.59375 C-78.13274197 31.65774731 -73.1649817 19.67855612 -65.3125 9.625 C-48.70037671 -8.15802185 -20.78696936 -13.82634035 0 0 Z " fill="#4740D0" transform="translate(260.3125,404.25)"/>
<path d="M0 0 C2.53195996 1.69051161 4.87891474 3.48051035 7.22265625 5.421875 C7.85816406 5.92203125 8.49367188 6.4221875 9.1484375 6.9375 C17.31729693 14.11015706 22.59841886 26.49719508 23.55859375 37.1484375 C23.7068908 51.94848302 20.35163564 64.41746706 10.19140625 75.671875 C-0.46780725 85.86764444 -13.0296561 89.94154962 -27.5078125 89.671875 C-39.77877541 88.73359349 -51.35173684 83.40802125 -59.77734375 74.421875 C-69.53198603 62.75221093 -72.4371609 50.34800902 -71.77734375 35.421875 C-70.58440386 23.27735582 -63.6544022 12.47884863 -54.77734375 4.421875 C-39.09068903 -7.52986193 -17.34795806 -9.85734888 0 0 Z " fill="#60B7E3" transform="translate(312.77734375,11.578125)"/>
</svg>
